<?xml version="1.0" encoding="UTF-8" standalone="no"?>
<!-- Created with Inkscape (http://www.inkscape.org/) -->

<svg
   width="147.31868mm"
   height="95.445656mm"
   viewBox="0 0 147.31868 95.445656"
   version="1.1"
   id="svg5"
   xml:space="preserve"
   inkscape:version="1.2 (dc2aedaf03, 2022-05-15)"
   sodipodi:docname="Dr Pepper logo.svg"
   xmlns:inkscape="http://www.inkscape.org/namespaces/inkscape"
   xmlns:sodipodi="http://sodipodi.sourceforge.net/DTD/sodipodi-0.dtd"
   xmlns="http://www.w3.org/2000/svg"
   xmlns:svg="http://www.w3.org/2000/svg"><sodipodi:namedview
     id="namedview7"
     pagecolor="#ffffff"
     bordercolor="#000000"
     borderopacity="0.25"
     inkscape:showpageshadow="2"
     inkscape:pageopacity="0.0"
     inkscape:pagecheckerboard="0"
     inkscape:deskcolor="#d1d1d1"
     inkscape:document-units="mm"
     showgrid="false"
     inkscape:zoom="0.70199214"
     inkscape:cx="292.02606"
     inkscape:cy="85.471042"
     inkscape:window-width="1920"
     inkscape:window-height="986"
     inkscape:window-x="-11"
     inkscape:window-y="-11"
     inkscape:window-maximized="1"
     inkscape:current-layer="layer1" /><defs
     id="defs2" /><g
     inkscape:label="Calque 1"
     inkscape:groupmode="layer"
     id="layer1"
     transform="translate(-15.596974,-125.78859)"><path
       style="fill:#900d2c;fill-opacity:1;stroke-width:0.264583"
       d="m 58.297513,220.57044 c -4.894524,-0.84845 -10.334601,-2.43739 -9.880316,-2.88585 0.0499,-0.0493 1.162296,0.13557 2.471983,0.41075 4.843693,1.0177 9.476139,1.40897 16.801042,1.41904 7.339663,0.0101 10.230746,-0.21301 17.197916,-1.32712 21.107022,-3.37521 42.245352,-13.45524 55.649482,-26.53702 10.07118,-9.82899 15.84724,-20.75829 16.48044,-31.18387 0.58838,-9.68763 -3.54301,-19.04044 -11.27576,-25.52648 -3.97941,-3.33783 -7.9923,-5.68344 -13.75833,-8.04201 -3.16907,-1.29629 -2.80289,-1.44118 1.30102,-0.51478 5.20097,1.17405 11.20809,3.93248 15.63925,7.18145 6.99227,5.12679 12.21721,13.39406 13.64591,21.59153 0.61838,3.54805 0.38565,9.19222 -0.52976,12.84769 -3.25394,12.99387 -13.39114,25.6083 -28.60121,35.59046 -13.62006,8.93866 -30.37942,14.97605 -47.878593,17.24778 -2.413746,0.31335 -5.582078,0.40598 -13.361458,0.39064 -9.549781,-0.0188 -10.432711,-0.0609 -13.901616,-0.66221 z m -24.738408,-7.58591 c 7.4e-5,-0.0364 0.250317,-0.72099 0.556098,-1.52135 0.662345,-1.73366 1.363499,-6.08223 1.168093,-7.24455 -0.07631,-0.45389 -0.256982,-3.44462 -0.401502,-6.64608 -0.144521,-3.20146 -0.443937,-9.21412 -0.665369,-13.36146 -0.221433,-4.14734 -0.516213,-9.98141 -0.655069,-12.96458 -0.138853,-2.98318 -0.322823,-6.15027 -0.408821,-7.03797 l -0.156358,-1.61401 1.405877,-1.26405 c 2.685891,-2.41495 7.513762,-5.42487 8.70726,-5.42852 0.453681,-0.001 0.419782,-0.40826 1.024924,12.30184 0.138568,2.91041 0.331957,6.33945 0.429755,7.62007 l 0.177813,2.3284 0.82473,-0.17733 c 2.979457,-0.64063 6.546162,-3.26684 8.593016,-6.32714 1.956067,-2.92456 2.516629,-4.86667 2.521431,-8.73567 0.0035,-2.80547 -0.07452,-3.36454 -0.670239,-4.80358 -0.827808,-1.99969 -1.588519,-2.96755 -3.1456,-4.00219 -3.251795,-2.16073 -7.45541,-2.14949 -12.632118,0.0338 -3.271385,1.37969 -6.465403,3.62056 -9.453887,6.63268 -6.811851,6.86574 -10.250315,15.10153 -10.282633,24.62891 -0.02905,8.56413 2.225844,14.61821 7.909318,21.23543 0.960496,1.1183 0.962312,1.12492 0.232459,0.84743 -0.40458,-0.15382 -1.475564,-0.8077 -2.379965,-1.45307 -4.940356,-3.52536 -8.984592,-10.73794 -10.312309,-18.39118 -0.599159,-3.45368 -0.394071,-11.64139 0.364247,-14.54174 1.600004,-6.11957 4.483028,-11.73488 8.307806,-16.18125 6.106174,-7.09853 12.866739,-11.31217 21.64091,-13.48808 0.878284,-0.21781 2.871295,-0.35778 5.027083,-0.35307 3.256193,0.007 3.732697,0.0715 5.391526,0.72844 2.372389,0.93952 4.870931,2.74199 6.395902,4.61405 3.352266,4.11526 4.807532,10.32664 3.686072,15.73292 -1.106829,5.33576 -3.82806,9.31381 -9.388083,13.72404 -2.250879,1.78541 -7.480049,4.33658 -10.186458,4.9697 l -2.116667,0.49517 0.0076,1.95664 c 0.01344,3.44332 0.661103,15.65223 0.928081,17.49507 0.27944,1.92886 0.857057,3.43099 1.682313,4.37498 0.312399,0.35735 0.423556,0.68541 0.275651,0.81355 -0.136318,0.11811 -1.498007,0.66259 -3.025976,1.20998 -1.527968,0.54738 -3.696123,1.3418 -4.81812,1.76537 -3.577926,1.35072 -6.559323,2.27276 -6.55883,2.02843 z m 37.306117,-1.08326 c 0,-0.0812 0.178593,-0.83336 0.396875,-1.6714 0.417761,-1.6039 0.484962,-6.04878 0.167359,-11.06982 l -0.167359,-2.64583 -0.609966,0.98098 c -0.952613,1.53204 -4.086563,4.27324 -6.087782,5.32486 -4.563718,2.39816 -8.304511,2.29812 -11.193531,-0.29936 -2.394402,-2.15277 -3.470396,-4.87966 -3.458101,-8.76388 0.0163,-5.14726 2.315432,-9.74804 6.069031,-12.14465 5.283732,-3.37359 10.474243,-2.2732 11.866406,2.51567 0.740402,2.54689 0.0072,5.98506 -1.753828,8.22381 -1.644779,2.091 -4.640135,3.50391 -7.500688,3.53808 -0.817714,0.01 -1.48675,0.11537 -1.48675,0.23468 0,0.46965 1.477516,1.93661 2.294253,2.27787 3.272766,1.36744 8.2111,-1.41517 10.657591,-6.00526 l 0.874138,-1.64005 -0.184031,-5.19117 c -0.196485,-5.54254 -0.378928,-6.72478 -1.198575,-7.76679 l -0.519415,-0.66033 4.006165,-1.4779 c 2.203389,-0.81284 4.104405,-1.41718 4.224478,-1.34297 0.12007,0.0742 0.218313,0.40744 0.218313,0.74051 0,0.53301 0.166465,0.44048 1.389062,-0.7721 1.481691,-1.46954 3.691059,-2.51055 5.328256,-2.51055 4.177982,0 6.824763,4.293 6.429555,10.42855 -0.493557,7.66241 -4.609341,13.32005 -10.751368,14.77905 -0.884539,0.21011 -1.334733,0.45317 -1.329967,0.71804 0.004,0.22022 0.114345,2.14955 0.245292,4.28739 0.183243,2.99159 0.365789,4.17568 0.792459,5.14023 0.304906,0.68929 0.462415,1.34296 0.35002,1.45261 -0.112392,0.10964 -1.990288,0.85053 -4.173101,1.6464 -2.182812,0.79588 -4.177109,1.5312 -4.431771,1.63404 -0.254661,0.10284 -0.46302,0.12052 -0.46302,0.0393 z m 9.451215,-19.92332 c 1.264248,-0.94699 2.082617,-2.15264 2.667889,-3.9304 1.07801,-3.27447 0.97083,-7.16634 -0.239739,-8.70534 -0.744498,-0.94647 -2.03332,-1.12649 -3.32976,-0.4651 -1.828165,0.93266 -1.78416,0.71511 -1.441799,7.12797 0.168738,3.16065 0.305384,6.02255 0.303662,6.35978 -0.0026,0.5135 0.09361,0.58375 0.592177,0.43231 0.327422,-0.0995 0.978829,-0.4681 1.44757,-0.81922 z m -22.292759,0.40995 c 2.168006,-0.54591 3.5957,-2.56562 3.65675,-5.17307 0.04146,-1.77076 -0.64221,-2.83073 -1.906447,-2.95575 -1.19725,-0.11841 -2.083001,0.56119 -2.811621,2.15724 -0.97027,2.12538 -1.211022,6.26144 -0.364469,6.26144 0.151069,0 0.792673,-0.13044 1.425787,-0.28986 z m 34.637061,11.07163 c 0.739928,-2.72911 0.742659,-3.93851 0.04002,-17.71843 -0.677524,-13.28737 -0.730237,-13.88495 -1.336106,-15.14647 -0.346914,-0.72233 -0.606597,-1.32983 -0.577073,-1.34999 0.213228,-0.14562 7.665527,-2.76063 7.867293,-2.76063 0.140899,0 0.256625,0.50601 0.25717,1.12448 l 0.0011,1.12447 0.484066,-0.79375 c 1.215281,-1.99278 4.262181,-3.84008 6.318181,-3.83064 4.01612,0.0184 6.29636,3.53036 6.26656,9.65148 -0.0165,3.39083 -0.48254,5.48509 -1.83722,8.25623 -1.39171,2.84689 -3.12949,4.59501 -5.99264,6.02831 -1.31136,0.65647 -2.64009,1.19541 -2.95272,1.19764 -1.14328,0.008 -1.17658,0.16869 -0.92661,4.46741 0.19075,3.28019 0.35752,4.37313 0.85542,5.60581 l 0.61849,1.53122 -0.69015,0.26334 c -2.815088,1.07414 -8.086334,2.94483 -8.298011,2.94483 -0.14252,0 -0.1865,-0.26789 -0.09773,-0.59531 z m 9.507821,-19.54094 c 2.41054,-1.98697 3.62711,-6.44904 2.80433,-10.28553 -0.56969,-2.65639 -2.03003,-3.49857 -4.17185,-2.40589 -1.712958,0.87389 -1.667135,0.60912 -1.320383,7.62915 l 0.31387,6.3543 0.698843,-0.24362 c 0.38436,-0.13398 1.13819,-0.60577 1.67519,-1.04841 z m 2.5518,12.94419 c -0.006,-1.64692 -0.10562,-3.47971 -0.22064,-4.07288 l -0.20912,-1.07849 2.00658,-0.71004 c 1.10362,-0.39052 2.09588,-0.70888 2.20502,-0.70745 0.10914,10e-4 0.19844,0.33508 0.19844,0.74146 0,0.65448 -0.13897,0.77604 -1.21665,1.06428 -0.9257,0.24759 -1.17879,0.42407 -1.05834,0.73798 0.0871,0.22691 0.15832,0.65369 0.15832,0.9484 0,0.37128 0.12188,0.48652 0.39688,0.37523 0.21828,-0.0883 0.57546,-0.23286 0.79375,-0.32119 0.30772,-0.12453 0.39687,0.0472 0.39687,0.76435 0,0.57012 -0.12687,0.92024 -0.33073,0.91266 -1.12756,-0.0419 -1.25677,0.0728 -1.25677,1.11565 v 1.04457 l 0.8599,-0.28828 c 0.47294,-0.15856 1.07701,-0.4764 1.34238,-0.70632 0.45698,-0.39593 0.47796,-0.36442 0.39687,0.59603 -0.0824,0.9756 -0.14582,1.0366 -1.67311,1.60821 -3.10267,1.16122 -2.77648,1.3979 -2.78965,-2.02417 z m 5.18415,0.8994 c -0.08,-0.08 -0.14554,-0.41616 -0.14554,-0.74692 0,-0.50368 0.16084,-0.61473 0.98999,-0.68351 1.24567,-0.10333 1.51993,-0.85209 0.41379,-1.12972 -1.08202,-0.27157 -1.40378,-0.63474 -1.40378,-1.58451 0,-0.54817 0.22023,-1.05441 0.62352,-1.43329 0.67396,-0.63315 2.55148,-1.09016 2.55148,-0.62106 0,0.15266 0.0691,0.45763 0.15356,0.67772 0.11442,0.29819 -0.0658,0.4217 -0.70723,0.48466 -1.22985,0.12073 -1.2225,0.59158 0.0168,1.0784 0.93033,0.36545 1.066,0.52468 1.066,1.25117 0,1.04068 -0.37146,1.75295 -1.12432,2.15587 -0.74913,0.40092 -2.24571,0.73979 -2.43431,0.55119 z m 4.62627,-2.15661 c -0.15064,-0.28148 -0.27389,-1.04565 -0.27389,-1.69815 0,-1.36243 -0.21484,-2.08539 -0.55689,-1.87399 -0.33544,0.20731 -0.30186,0.0461 0.26653,-1.27991 0.45448,-1.06026 0.94547,-1.51535 1.63491,-1.51535 0.13362,0 0.24295,0.17486 0.24295,0.38858 0,0.23571 0.15524,0.329 0.39464,0.23713 0.68171,-0.2616 0.83587,0.73848 0.18087,1.17338 -0.4695,0.31173 -0.57551,0.6383 -0.57551,1.77279 0,1.14795 0.1039,1.46007 0.59531,1.78834 0.58743,0.3924 0.58864,0.40509 0.0913,0.95831 -0.62944,0.70014 -1.63846,0.7248 -2.0002,0.0489 z m 2.8946,-0.68669 c -0.45759,-0.55136 0.069,-1.71196 0.77675,-1.71196 0.73293,0 0.97701,0.97244 0.40322,1.60646 -0.55751,0.61606 -0.74252,0.63259 -1.17997,0.1055 z m 2.69569,-3.32712 c -0.0299,-1.47043 -0.18683,-2.92105 -0.34874,-3.22359 -0.25538,-0.47718 -0.15821,-0.67501 0.7331,-1.49256 l 1.0275,-0.94248 0.18295,2.38013 c 0.10062,1.30907 0.23748,3.05726 0.30413,3.88487 0.11925,1.48065 0.10827,1.50924 -0.68545,1.78593 -0.44365,0.15466 -0.88595,0.2812 -0.98289,0.2812 -0.0969,0 -0.20071,-1.20308 -0.2306,-2.6735 z m 3.19052,0.9387 c -0.69046,-0.48362 -0.75803,-1.40233 -0.18467,-2.51108 0.36463,-0.70514 0.36184,-0.84339 -0.0292,-1.44014 -1.08014,-1.64851 1.33233,-4.34072 3.32341,-3.70877 0.73385,0.23291 0.93619,1.2626 0.44255,2.25213 -0.34762,0.69683 -0.35297,0.84112 -0.0356,0.96289 0.46626,0.17893 0.78076,1.07789 0.68006,1.94389 -0.11308,0.97247 -1.03816,2.12856 -2.03729,2.54602 -1.11943,0.46773 -1.43674,0.46113 -2.15925,-0.0449 z m 2.26946,-1.22854 c 0.4786,-0.47859 0.38172,-1.21701 -0.20055,-1.52863 -0.41615,-0.22272 -0.57229,-0.17593 -0.79375,0.23788 -0.43823,0.81883 -0.33978,1.60825 0.20055,1.60825 0.26194,0 0.61913,-0.14287 0.79375,-0.3175 z m -0.0794,-4.7132 c 0,-0.94146 -0.77061,-0.86001 -0.87971,0.093 -0.0695,0.6071 0.006,0.73302 0.39687,0.65784 0.313,-0.0603 0.48284,-0.32439 0.48284,-0.75082 z m 3.09562,3.91945 c -0.4763,-0.4763 -0.38226,-1.92514 0.16916,-2.60612 0.47248,-0.58349 0.47248,-0.61516 0,-1.08764 -0.63118,-0.63118 -0.61512,-1.46333 0.0493,-2.5531 1.47703,-2.42261 4.81837,-1.68922 3.58331,0.78651 -0.39173,0.78525 -0.38521,0.85417 0.11386,1.20373 0.38168,0.26734 0.52938,0.67059 0.52938,1.44525 0,0.89533 -0.17125,1.24571 -1.0272,2.10167 -0.84362,0.84362 -1.21246,1.0272 -2.06375,1.0272 -0.5701,0 -1.17942,-0.14287 -1.35405,-0.3175 z m 2.44173,-1.1566 c 0.52271,-0.52272 0.52916,-1.01283 0.0189,-1.43631 -0.52043,-0.43192 -1.19062,0.0828 -1.19062,0.91434 0,0.99419 0.48392,1.20977 1.17172,0.52197 z m -0.009,-4.23608 c 0.28962,-0.75471 0.16904,-1.16898 -0.34025,-1.16898 -0.61887,0 -0.93644,0.73399 -0.52964,1.22416 0.3958,0.47691 0.67246,0.45936 0.8699,-0.0552 z m 3.13717,3.94481 c -0.1819,-0.0719 -0.33073,-0.45416 -0.33073,-0.84938 0,-0.65879 0.0735,-0.70999 0.8832,-0.61546 1.08736,0.12694 1.76264,-0.46733 1.76264,-1.55118 0,-0.5889 -0.12246,-0.77486 -0.51027,-0.77486 -0.28065,0 -0.68852,0.17826 -0.90638,0.39612 -0.21787,0.21786 -0.5883,0.32237 -0.8232,0.23223 -0.35054,-0.13452 -0.41334,-0.51914 -0.35039,-2.14612 l 0.0767,-1.98224 1.71979,-0.62685 c 0.94588,-0.34477 1.81663,-0.62883 1.93499,-0.63124 0.11836,-0.002 0.17789,0.37738 0.13229,0.84399 -0.0741,0.75825 -0.21642,0.88967 -1.33968,1.23707 -1.01678,0.31447 -1.25677,0.50356 -1.25677,0.9902 0,0.58777 0.0217,0.59243 0.95109,0.20412 0.85302,-0.35642 1.01672,-0.35439 1.5875,0.0196 1.37778,0.90276 0.39687,4.13056 -1.48026,4.87093 -1.01786,0.40146 -1.68765,0.52659 -2.05052,0.38308 z m -14.79704,-7.61132 c -5.86661,-1.83438 -8.22003,-10.14904 -4.86336,-17.18231 2.74893,-5.75988 9.71706,-8.9471 13.93729,-6.37493 2.65338,1.6172 3.57745,5.46637 2.20276,9.17544 -0.46576,1.25668 -1.01088,2.06135 -2.21961,3.27644 -1.91579,1.92587 -3.72016,2.71172 -6.46856,2.81722 l -1.82458,0.07 0.37177,0.72002 c 1.07078,2.07384 4.24866,2.70848 6.9133,1.38063 1.88843,-0.94104 4.29562,-3.59773 5.53691,-6.11081 l 1.01269,-2.05025 -0.086,-3.05521 c -0.15913,-5.65231 -0.43798,-7.89868 -1.08996,-8.78053 -0.32473,-0.43922 -0.5458,-0.84319 -0.49127,-0.89772 0.15454,-0.15454 7.37114,-2.76967 7.64305,-2.76967 0.13305,0 0.25096,0.62508 0.26203,1.38906 l 0.0201,1.38906 0.32199,-0.88977 c 0.7865,-2.17334 3.60061,-4.2686 5.72317,-4.26121 2.25538,0.008 4.22665,1.7036 4.76434,4.09841 0.36072,1.60661 0.16564,2.81289 -0.69443,4.29417 -0.93401,1.60862 -3.32365,2.71073 -4.97751,2.29564 l -0.71094,-0.17843 0.54469,-0.57979 c 0.65792,-0.70032 0.72939,-2.30755 0.1293,-2.90764 -1.18451,-1.18451 -2.6434,-0.62684 -3.80556,1.4547 -0.81316,1.45647 -0.96406,3.95178 -0.59085,9.7708 0.20357,3.1741 0.38987,4.39357 0.82426,5.39526 0.30869,0.71182 0.52579,1.32967 0.48246,1.373 -0.11478,0.11478 -8.23086,3.02132 -8.43658,3.02132 -0.0955,0 0.0519,-0.72498 0.32772,-1.61107 0.27578,-0.88609 0.50142,-1.92143 0.50142,-2.30076 0,-0.61589 -0.0863,-0.5536 -0.80655,0.58211 -0.4436,0.69949 -1.42587,1.92782 -2.18281,2.72961 -3.85677,4.08529 -8.5372,5.88456 -12.2707,4.71717 z m 2.45556,-12.03026 c 2.02856,-0.92124 3.01492,-2.5345 3.01492,-4.9311 0,-1.76398 -0.90557,-3.0307 -2.16664,-3.0307 -1.9022,0 -3.38961,2.8656 -3.38961,6.53032 v 1.93635 l 0.7276,-0.006 c 0.40019,-0.003 1.21636,-0.22777 1.81373,-0.49906 z m -52.96952,4.4521 c 1.052372,-3.50244 1.035441,-3.25787 0.70372,-10.16494 -0.72372,-15.06927 -1.094901,-21.18207 -1.341919,-22.09942 -0.143666,-0.53354 -0.62752,-1.47574 -1.075232,-2.09379 -0.447709,-0.61804 -0.760571,-1.17717 -0.695248,-1.24249 0.06532,-0.0653 1.949328,-0.78176 4.186674,-1.59208 10.518198,-3.80946 12.961275,-4.38285 16.3207,-3.83043 3.217246,0.52904 6.065372,2.38302 7.775353,5.06133 1.761035,2.75829 2.722864,8.1533 2.276591,12.76968 -0.591883,6.12268 -3.337464,11.4797 -7.693149,15.01046 -2.87918,2.33389 -5.977858,3.71637 -16.331382,7.28629 -1.81901,0.6272 -3.534788,1.22923 -3.812841,1.33785 -0.438063,0.17112 -0.479883,0.11206 -0.313267,-0.44246 z m 12.005939,-9.29538 c 3.26103,-1.60539 5.486316,-4.70754 6.697224,-9.33623 0.659974,-2.52275 0.788204,-7.34162 0.2605,-9.78958 -0.980868,-4.55012 -3.731392,-7.14993 -6.983198,-6.60054 -1.190397,0.20112 -3.217804,1.00279 -3.438305,1.35957 -0.07709,0.12473 0.08243,4.51013 0.354476,9.74534 0.770694,14.83093 0.816668,15.47167 1.110083,15.47167 0.149688,0 1.049337,-0.3826 1.99922,-0.85023 z m 64.286771,9.38178 c -0.84028,-0.521 -1.52285,-1.80541 -1.52285,-2.8656 0,-0.40501 0.25085,-1.25458 0.55746,-1.88793 1.67519,-3.46049 6.1837,-3.22586 6.50898,0.33874 0.29436,3.22585 -3.1006,5.92952 -5.54359,4.41479 z m 3.12853,-0.82838 c 0.89548,-0.54606 1.69862,-1.98076 1.69862,-3.03435 0,-3.07595 -3.80452,-3.44003 -5.1342,-0.49133 -1.22092,2.70752 1.0148,5.00187 3.43558,3.52568 z m -2.36495,-0.63662 c -0.0837,-0.3335 -0.22937,-1.26305 -0.32371,-2.06567 l -0.17151,-1.4593 1.05332,-0.31558 c 0.57933,-0.17357 1.24368,-0.31558 1.47633,-0.31558 0.5626,0 0.95174,0.79593 0.71147,1.45521 -0.11688,0.32072 -0.0402,0.76286 0.19463,1.12243 0.21311,0.3263 0.31858,0.77279 0.23439,0.99219 -0.21967,0.57245 -0.8983,0.49178 -1.09573,-0.13025 -0.0924,-0.29104 -0.38154,-0.52916 -0.6426,-0.52916 -0.36878,0 -0.44524,0.1538 -0.34282,0.6896 0.0809,0.42332 -0.01,0.77933 -0.23513,0.92199 -0.55682,0.35263 -0.69286,0.29467 -0.85864,-0.36588 z m 1.68232,-2.72923 c 0,-0.20271 -0.23813,-0.36857 -0.52917,-0.36857 -0.58,0 -0.60081,0.0346 -0.37498,0.62312 0.18324,0.4775 0.90415,0.27454 0.90415,-0.25455 z m -47.53041,-6.84801 c 0.70528,-1.83795 0.76764,-4.13861 0.3298,-12.16818 -0.42177,-7.73491 -0.482871,-8.26087 -1.084784,-9.33781 l -0.637839,-1.14122 0.582969,-0.21924 c 0.320633,-0.12058 1.892654,-0.70161 3.493384,-1.29118 1.60073,-0.58957 3.11878,-1.15344 3.37344,-1.25304 0.39521,-0.15456 0.46302,-0.0219 0.46302,0.90555 0,0.59766 0.0893,1.08528 0.19844,1.08361 0.10914,-0.002 0.43256,-0.49151 0.71872,-1.08854 0.85409,-1.78198 3.14534,-3.20282 5.16485,-3.20282 3.34341,0 5.57494,3.03157 4.79545,6.51469 -0.56119,2.50766 -2.48507,4.12971 -4.89817,4.12971 -1.32418,0 -1.4346,-0.11454 -0.79346,-0.82299 0.5645,-0.62376 0.54143,-2.25367 -0.041,-2.89726 -0.50432,-0.55726 -1.70427,-0.67383 -2.50809,-0.24364 -0.27691,0.1482 -0.81895,0.80778 -1.20454,1.46574 -0.9002,1.53607 -1.02249,3.14701 -0.69178,9.11273 0.20067,3.61974 0.37801,4.94573 0.81262,6.07604 0.30576,0.7952 0.46836,1.5219 0.36134,1.61488 -0.10702,0.093 -1.92099,0.7993 -4.03105,1.56959 -2.11005,0.7703 -4.00595,1.46325 -4.21312,1.53991 -0.275127,0.1018 -0.326398,0.008 -0.1902,-0.34653 z"
       id="path871" /></g></svg>
