<svg id="visual" viewBox="0 0 900 600" width="900" height="600" xmlns="http://www.w3.org/2000/svg" xmlns:xlink="http://www.w3.org/1999/xlink" version="1.1"><path d="M0 33L4.8 40.5C9.7 48 19.3 63 29 63.3C38.7 63.7 48.3 49.3 58 48C67.7 46.7 77.3 58.3 87 62C96.7 65.7 106.3 61.3 116 61.5C125.7 61.7 135.3 66.3 145 64.8C154.7 63.3 164.3 55.7 174 54.7C183.7 53.7 193.3 59.3 203 58.8C212.7 58.3 222.3 51.7 232 51.7C241.7 51.7 251.3 58.3 261 55.5C270.7 52.7 280.3 40.3 290 34C299.7 27.7 309.3 27.3 319 35C328.7 42.7 338.3 58.3 348 63.7C357.7 69 367.3 64 377 66.8C386.7 69.7 396.3 80.3 406 81.7C415.7 83 425.3 75 435.2 67.5C445 60 455 53 464.8 57.3C474.7 61.7 484.3 77.3 494 85C503.7 92.7 513.3 92.3 523 87.2C532.7 82 542.3 72 552 68.3C561.7 64.7 571.3 67.3 581 70.7C590.7 74 600.3 78 610 74.2C619.7 70.3 629.3 58.7 639 59C648.7 59.3 658.3 71.7 668 70.7C677.7 69.7 687.3 55.3 697 46.3C706.7 37.3 716.3 33.7 726 37.3C735.7 41 745.3 52 755 55.8C764.7 59.7 774.3 56.3 784 57.2C793.7 58 803.3 63 813 61.2C822.7 59.3 832.3 50.7 842 51.2C851.7 51.7 861.3 61.3 871 63.2C880.7 65 890.3 59 895.2 56L900 53L900 0L895.2 0C890.3 0 880.7 0 871 0C861.3 0 851.7 0 842 0C832.3 0 822.7 0 813 0C803.3 0 793.7 0 784 0C774.3 0 764.7 0 755 0C745.3 0 735.7 0 726 0C716.3 0 706.7 0 697 0C687.3 0 677.7 0 668 0C658.3 0 648.7 0 639 0C629.3 0 619.7 0 610 0C600.3 0 590.7 0 581 0C571.3 0 561.7 0 552 0C542.3 0 532.7 0 523 0C513.3 0 503.7 0 494 0C484.3 0 474.7 0 464.8 0C455 0 445 0 435.2 0C425.3 0 415.7 0 406 0C396.3 0 386.7 0 377 0C367.3 0 357.7 0 348 0C338.3 0 328.7 0 319 0C309.3 0 299.7 0 290 0C280.3 0 270.7 0 261 0C251.3 0 241.7 0 232 0C222.3 0 212.7 0 203 0C193.3 0 183.7 0 174 0C164.3 0 154.7 0 145 0C135.3 0 125.7 0 116 0C106.3 0 96.7 0 87 0C77.3 0 67.7 0 58 0C48.3 0 38.7 0 29 0C19.3 0 9.7 0 4.8 0L0 0Z" fill="#B52A1D" stroke-linecap="round" stroke-linejoin="miter"></path></svg>